HIERARCHY
ROOT Hips
{
	OFFSET 0.000000 0.000000 0.000000
	CHANNELS 6 Xposition Yposition Zposition Zrotation Yrotation Xrotation 
	JOINT LHipJoint
	{
		OFFSET 0.000000 0.000000 0.000000
		CHANNELS 3 Zrotation Yrotation Xrotation
		JOINT LeftUpLeg
		{
			OFFSET 1.363060 -1.794630 0.839290
			CHANNELS 3 Zrotation Yrotation Xrotation
			JOINT LeftLeg
			{
				OFFSET 2.448110 -6.726130 0.000000
				CHANNELS 3 Zrotation Yrotation Xrotation
				JOINT LeftFoot
				{
					OFFSET 2.562200 -7.039590 0.000000
					CHANNELS 3 Zrotation Yrotation Xrotation
					JOINT LeftToeBase
					{
						OFFSET 0.157640 -0.433110 2.322550
						CHANNELS 3 Zrotation Yrotation Xrotation
						End Site
						{
							OFFSET 0.000000 0.000000 0.000000
						}
					}
				}
			}
		}
	}
	JOINT RHipJoint
	{
		OFFSET 0.000000 0.000000 0.000000
		CHANNELS 3 Zrotation Yrotation Xrotation
		JOINT RightUpLeg
		{
			OFFSET -1.305520 -1.794630 0.839290
			CHANNELS 3 Zrotation Yrotation Xrotation
			JOINT RightLeg
			{
				OFFSET -2.542530 -6.985550 0.000000
				CHANNELS 3 Zrotation Yrotation Xrotation
				JOINT RightFoot
				{
					OFFSET -2.568260 -7.056230 0.000000
					CHANNELS 3 Zrotation Yrotation Xrotation
					JOINT RightToeBase
					{
						OFFSET -0.164730 -0.452590 2.363150
						CHANNELS 3 Zrotation Yrotation Xrotation
						End Site
						{
							OFFSET 0.000000 0.000000 0.000000
						}
					}
				}
			}
		}
	}
	JOINT LowerBack
	{
		OFFSET 0.000000 0.000000 0.000000
		CHANNELS 3 Zrotation Yrotation Xrotation
		JOINT Spine
		{
			OFFSET 0.028270 2.035590 -0.193380
			CHANNELS 3 Zrotation Yrotation Xrotation
			JOINT Spine1
			{
				OFFSET 0.056720 2.048850 -0.042750
				CHANNELS 3 Zrotation Yrotation Xrotation
				JOINT Neck
				{
					OFFSET 0.000000 0.000000 0.000000
					CHANNELS 3 Zrotation Yrotation Xrotation
					JOINT Neck1
					{
						OFFSET -0.054170 1.746240 0.172020
						CHANNELS 3 Zrotation Yrotation Xrotation
						JOINT Head
						{
							OFFSET 0.104070 1.761360 -0.123970
							CHANNELS 3 Zrotation Yrotation Xrotation
							End Site
							{
								OFFSET 0.000000 0.000000 0.000000
							}
						}
					}
				}
				JOINT LeftShoulder
				{
					OFFSET 0.000000 0.000000 0.000000
					CHANNELS 3 Zrotation Yrotation Xrotation
					JOINT LeftArm
					{
						OFFSET 3.362410 1.200890 -0.311210
						CHANNELS 3 Zrotation Yrotation Xrotation
						JOINT LeftForeArm
						{
							OFFSET 4.983000 -0.000000 -0.000000
							CHANNELS 3 Zrotation Yrotation Xrotation
							JOINT LeftHand
							{
								OFFSET 3.483560 -0.000000 -0.000000
								CHANNELS 3 Zrotation Yrotation Xrotation
								JOINT LeftFingerBase
								{
									OFFSET 0.000000 0.000000 0.000000
									CHANNELS 3 Zrotation Yrotation Xrotation
									JOINT LeftHandIndex1
									{
										OFFSET 0.715260 -0.000000 -0.000000
										CHANNELS 3 Zrotation Yrotation Xrotation
										End Site
										{
											OFFSET 0.000000 0.000000 0.000000
										}
									}
								}
								JOINT LThumb
								{
									OFFSET 0.000000 0.000000 0.000000
									CHANNELS 3 Zrotation Yrotation Xrotation
									End Site
									{
										OFFSET 0.000000 0.000000 0.000000
									}
								}
							}
						}
					}
				}
				JOINT RightShoulder
				{
					OFFSET 0.000000 0.000000 0.000000
					CHANNELS 3 Zrotation Yrotation Xrotation
					JOINT RightArm
					{
						OFFSET -3.136600 1.374050 -0.404650
						CHANNELS 3 Zrotation Yrotation Xrotation
						JOINT RightForeArm
						{
							OFFSET -5.241900 -0.000000 -0.000000
							CHANNELS 3 Zrotation Yrotation Xrotation
							JOINT RightHand
							{
								OFFSET -3.444170 -0.000000 -0.000000
								CHANNELS 3 Zrotation Yrotation Xrotation
								JOINT RightFingerBase
								{
									OFFSET 0.000000 0.000000 0.000000
									CHANNELS 3 Zrotation Yrotation Xrotation
									JOINT RightHandIndex1
									{
										OFFSET -0.622530 -0.000000 -0.000000
										CHANNELS 3 Zrotation Yrotation Xrotation
										End Site
										{
											OFFSET 0.000000 0.000000 0.000000
										}
									}
								}
								JOINT RThumb
								{
									OFFSET 0.000000 0.000000 0.000000
									CHANNELS 3 Zrotation Yrotation Xrotation
									End Site
									{
										OFFSET 0.000000 0.000000 0.000000
									}
								}
							}
						}
					}
				}
			}
		}
	}
}
MOTION
Frames: 6
Frame Time: 0.008333
2.312730 15.932084 2.183894 13.571898 -78.695457 29.044534 -8.413480 -0.899830 3.243614 -12.998092 -16.477919 -69.534657 -1.746979 1.930363 45.332283 2.216654 5.086525 -18.776274 -1.095300 0.000000 -27.850100 8.501394 3.143495 0.311935 5.715711 -3.460384 -85.506205 -1.977933 -6.865329 75.268695 -3.733323 -18.462972 12.595066 -7.322299 0.000000 -69.314700 -2.122658 -2.934056 -0.227784 -0.977138 -2.884405 -2.853529 -5.149213 -2.869896 0.157610 9.379302 -16.461624 -7.612872 -1.521855 -0.092340 -0.319256 0.000000 0.000000 0.000000 11.613214 1.487752 -0.303713 -55.212168 -24.649906 1.991024 -179.363514 -77.897339 179.929939 7.148899 0.470072 -0.005107 -0.209437 0.581100 -0.000000 0.000000 0.000000 0.000000 0.000000 0.000000 0.000000 4.433758 -12.837440 1.917688 60.937299 -7.558087 16.232438 179.851783 87.664695 179.971959 -7.004309 5.161065 -0.345459 0.161259 -0.379922 0.000000 0.000000 0.000000 0.000000 0.000000 0.000000 0.000000 
2.310159 15.978631 2.206154 11.571846 -78.483837 30.154396 -8.505816 -0.957497 3.183420 -12.634942 -16.188226 -68.299217 -1.683993 1.855696 44.944747 2.231662 5.311888 -18.683605 -1.113500 0.000000 -28.015700 8.400802 3.273108 0.218361 5.840889 -3.574022 -85.946584 -2.123110 -6.899276 76.606735 -3.628765 -18.316935 16.214486 -8.114000 -0.000000 -68.950700 -1.731390 -3.027730 -0.123536 -0.863012 -2.999530 -2.813967 -5.085937 -2.987577 0.246317 9.309655 -16.825307 -7.562401 -1.462611 -0.089671 -0.288329 0.000000 0.000000 0.000000 11.682488 1.483360 -0.402719 -54.672715 -24.877042 1.744840 -179.386236 -77.970500 179.932219 6.944166 0.377320 -0.010832 -0.200017 0.582166 -0.000000 0.000000 0.000000 0.000000 0.000000 0.000000 0.000000 4.194930 -13.304293 1.868005 60.438768 -8.578647 17.188324 179.858095 87.847047 179.974615 -6.718247 5.072247 -0.325187 0.156781 -0.366056 0.000000 0.000000 0.000000 0.000000 0.000000 0.000000 0.000000 
2.308183 16.025222 2.227694 9.604302 -78.341339 31.286166 -8.601415 -1.016350 3.117421 -12.255737 -15.881657 -67.119209 -1.623220 1.784078 44.535595 2.251641 5.560919 -18.581457 -1.132300 0.000001 -28.200600 8.298068 3.391056 0.159131 5.914577 -3.595747 -86.465392 -2.236256 -6.927426 77.775874 -3.480504 -17.734334 19.588655 -8.580200 -0.000001 -68.570400 -1.355568 -3.116410 -0.040752 -0.753352 -3.108864 -2.782649 -5.020504 -3.100110 0.322639 9.238573 -17.160957 -7.507727 -1.405237 -0.087166 -0.257504 0.000000 0.000000 0.000000 11.748578 1.487011 -0.495977 -54.152296 -25.013375 1.419871 -179.410119 -78.011796 179.934011 6.782346 0.298836 -0.015357 -0.191495 0.583095 -0.000000 0.000000 0.000000 0.000000 0.000000 0.000000 0.000000 3.945139 -13.733744 1.811565 59.933022 -9.527157 18.077700 179.860644 87.919312 179.976862 -6.465637 5.017484 -0.309113 0.152719 -0.354052 0.000000 0.000000 0.000000 0.000000 0.000000 0.000000 0.000000 
2.306813 16.071650 2.248379 7.645389 -78.272352 32.469821 -8.699192 -1.077077 3.043829 -11.867085 -15.551824 -66.002290 -1.565721 1.716092 44.107865 2.275370 5.826564 -18.470493 -1.150800 0.000000 -28.387000 8.196167 3.495330 0.135058 5.934915 -3.517830 -87.070232 -2.326147 -6.953448 78.772043 -3.291408 -16.693594 22.611397 -8.644900 -0.000000 -68.235100 -0.996137 -3.195565 0.021333 -0.649170 -3.207804 -2.759097 -4.955301 -3.202648 0.387187 9.166527 -17.470719 -7.450943 -1.350308 -0.084829 -0.227437 0.000000 0.000000 0.000000 11.807480 1.499454 -0.583308 -53.645483 -25.068660 1.021608 -179.435102 -78.020589 179.935155 6.678724 0.242661 -0.018481 -0.184388 0.583729 -0.000000 0.000000 0.000000 0.000000 0.000000 0.000000 0.000000 3.687898 -14.125268 1.750152 59.433178 -10.403368 18.886393 179.859636 87.885530 179.979018 -6.244239 4.995426 -0.296737 0.149020 -0.343957 0.000000 0.000000 0.000000 0.000000 0.000000 0.000000 0.000000 
2.306063 16.117639 2.268203 5.664458 -78.278677 33.740831 -8.798359 -1.140696 2.960700 -11.473904 -15.192415 -64.953838 -1.512187 1.652106 43.665005 2.301687 6.102289 -18.351269 -1.168200 0.000001 -28.568400 8.096160 3.585130 0.145706 5.903372 -3.335254 -87.769217 -2.401227 -6.979945 79.596004 -3.068367 -15.220199 25.202057 -8.284600 -0.000000 -68.026100 -0.651997 -3.261657 0.065347 -0.550858 -3.292837 -2.742393 -4.892148 -3.291454 0.440813 9.093419 -17.754790 -7.393483 -1.298262 -0.082662 -0.198605 0.000000 0.000000 0.000000 11.857330 1.522029 -0.664360 -53.150630 -25.051858 0.556068 -179.461023 -77.999098 179.935585 6.640317 0.215248 -0.020103 -0.178980 0.583918 0.000000 0.000000 0.000000 0.000000 0.000000 0.000000 0.000000 3.425932 -14.476937 1.685593 58.951883 -11.206408 19.602433 179.854870 87.755455 179.980722 -6.047871 5.001718 -0.287358 0.145569 -0.335723 0.000000 0.000000 0.000000 0.000000 0.000000 0.000000 0.000000 
2.306107 16.163068 2.287276 3.629104 -78.358824 35.133015 -8.898193 -1.208277 2.866447 -11.080275 -14.799307 -63.976224 -1.462987 1.592204 43.209325 2.329579 6.382821 -18.223292 -1.183600 0.000001 -28.761500 7.997358 3.660794 0.189066 5.824561 -3.049159 -88.570199 -2.467936 -7.008813 80.252586 -2.820639 -13.386775 27.307376 -7.533100 0.000000 -67.946600 -0.320764 -3.312514 0.095381 -0.458269 -3.361871 -2.731384 -4.832085 -3.364260 0.484273 9.018753 -18.011831 -7.336009 -1.249517 -0.080679 -0.171239 0.000000 0.000000 0.000000 11.899104 1.555198 -0.739168 -52.671573 -24.969549 0.028780 -179.487478 -77.947252 179.935324 6.665591 0.219628 -0.019925 -0.175307 0.583595 -0.000000 0.000000 0.000000 0.000000 0.000000 0.000000 0.000000 3.161117 -14.786141 1.619792 58.499677 -11.934916 20.217654 179.846700 87.542605 179.981986 -5.867977 5.029685 -0.279879 0.142227 -0.329219 0.000000 0.000000 0.000000 0.000000 0.000000 0.000000 0.000000 
